<?xml version="1.0" encoding="UTF-8"?>
<!DOCTYPE svg PUBLIC "-//W3C//DTD SVG 1.1//EN" "http://www.w3.org/Graphics/SVG/1.1/DTD/svg11.dtd">
<!-- Creator: CorelDRAW 2017 -->
<svg xmlns="http://www.w3.org/2000/svg" xml:space="preserve" width="3.554in" height="0.871in" version="1.1" style="shape-rendering:geometricPrecision; text-rendering:geometricPrecision; image-rendering:optimizeQuality; fill-rule:evenodd; clip-rule:evenodd"
viewBox="0 0 3554 871"
 xmlns:xlink="http://www.w3.org/1999/xlink">
 <defs>
  <style type="text/css">
   <![CDATA[
    .fil1 {fill:#36C1CC}
    .fil0 {fill:#385DAA}
   ]]>
  </style>
 </defs>
 <g id="Layer_x0020_1">
  <metadata id="CorelCorpID_0Corel-Layer"/>
  <g id="_2091092565760">
   <path class="fil0" d="M2308.09 514.9c-24.14,0 -56.33,-16.58 -56.33,-37.31l0 -87.05c0,-15.63 9.2,-22.64 19.54,-28.38 13.8,-7.65 31.04,-11.8 47.13,-8.29 4.6,0.96 6.9,1.59 10.35,2.87 16.09,4.78 29.89,19.45 35.64,36.04 3.45,9.25 6.89,40.5 5.75,50.7 -1.15,3.83 -2.3,6.7 -2.3,10.2 -5.75,24.55 -13.8,48.15 -39.09,57.4 -4.6,1.91 -12.65,3.83 -20.69,3.83zm-91.96 23.59c33.33,0 26.44,3.51 32.19,-14.03 1.15,-2.55 1.15,-2.55 1.15,-5.74 6.9,4.46 8.05,8.93 26.44,17.85 25.29,13.07 55.18,11.16 80.47,-1.59 4.6,-2.87 10.35,-7.01 14.94,-10.52 20.69,-16.26 36.79,-58.04 36.79,-91.84 0,-39.86 -11.5,-82.27 -49.43,-100.76 -28.74,-14.67 -66.67,-14.03 -95.41,4.78 -3.45,2.55 -6.9,5.42 -10.35,7.97l0 -113.52c0,-17.85 6.9,-14.35 -36.78,-14.35l0 321.75z"/>
   <path class="fil0" d="M1009.11 316.24c0,29.97 5.75,51.98 31.04,68.56 21.84,14.03 67.82,23.59 95.41,31.57 4.6,1.91 8.05,2.55 12.65,5.42l9.2 8.61c14.94,17.54 12.65,48.15 -3.45,63.46 0,0 0,0.32 0,0.32 0,0.32 0,0.32 -1.15,0.64 0,0.64 -1.15,0.96 -1.15,1.59 -2.3,1.91 -2.3,1.91 -4.6,3.51 -16.09,9.57 -37.93,13.07 -56.33,10.84l-34.48 -4.46c-8.05,-1.28 -14.94,-2.23 -22.99,-3.51l-22.99 -3.19c0,33.8 -3.45,29.02 11.5,34.44 4.6,1.91 9.2,3.51 13.8,5.1 10.35,2.87 20.69,5.1 32.19,6.06 36.79,4.46 91.96,-1.91 118.4,-28.38 24.14,-24.24 29.89,-58.99 17.24,-90.88 -6.9,-20.09 -26.44,-36.35 -47.13,-42.73 -16.09,-5.1 -39.08,-9.57 -56.33,-15.31 -14.94,-4.78 -27.59,-6.38 -37.94,-17.22 -11.49,-11.8 -10.34,-22.64 -10.34,-36.35 0,-14.67 10.34,-27.11 18.39,-33.17 12.65,-9.24 31.04,-9.88 49.43,-9.88 20.69,0 54.03,9.24 75.87,14.35l0 -32.52c-13.79,-7.33 -45.98,-16.26 -66.67,-16.26 -31.04,0 -64.37,0.32 -89.66,20.73 -13.8,11.16 -20.69,22.96 -26.44,39.22 -1.15,4.46 -3.45,13.71 -3.45,19.45z"/>
   <path class="fil0" d="M1610.32 353.22c25.29,0 39.08,13.07 45.98,34.76 1.15,4.15 4.6,16.58 4.6,21.68l-104.61 0c0,-15.62 8.04,-30.61 16.09,-38.9 8.05,-7.97 22.99,-17.54 37.94,-17.54zm-94.26 84.19c0,24.24 4.6,45.6 16.09,64.41 2.3,3.51 2.3,5.1 5.75,7.97 12.65,14.67 17.24,18.81 39.08,27.74 32.19,13.39 113.8,4.15 113.8,-5.74l0 -23.59c-8.04,0 -14.94,1.91 -24.14,1.91 -37.94,-0.32 -77.02,11.48 -102.31,-26.47 -6.89,-10.84 -8.04,-18.49 -9.19,-30.29 -1.15,-5.42 0,-6.38 0,-12.12l145.99 0c0,-7.02 -2.3,-15.63 -2.3,-22.64 -1.15,-7.33 -2.3,-14.98 -3.45,-22.96 -3.45,-27.11 -16.09,-48.15 -39.08,-62.5 -19.54,-12.12 -47.13,-16.26 -68.97,-8.29 -6.9,2.87 -11.5,4.78 -18.39,8.29 -5.75,2.87 -10.35,6.06 -14.94,9.88 -1.15,1.28 -2.3,1.91 -3.45,3.19l-8.05 7.65c-12.65,15.63 -22.99,36.99 -24.14,58.67 -1.15,7.65 -2.3,16.58 -2.3,24.87z"/>
   <path class="fil0" d="M2064.38 513.94c-9.19,0 -17.24,0.32 -26.44,-3.51 -9.2,-3.51 -16.09,-11.16 -19.54,-20.73 -4.6,-14.67 -1.15,-33.8 13.8,-43.05 14.94,-8.93 52.88,-7.33 72.42,-1.91 2.3,0.96 5.75,1.91 8.05,2.23 0,15.94 11.49,39.22 -12.65,53.89 -11.5,6.7 -21.84,13.07 -35.64,13.07zm-66.67 -179.53l0 27.42c4.6,-0.32 11.5,-1.91 14.94,-2.55 29.89,-3.51 63.22,-9.89 86.22,7.02 2.3,2.23 2.3,2.87 4.6,5.74 11.5,13.07 9.2,26.15 9.2,41.45 0,5.74 -11.5,0.32 -20.69,-2.23 -21.84,-4.46 -52.88,-2.87 -71.27,4.15 -21.84,7.65 -37.93,29.98 -41.38,54.53 -3.45,35.72 18.39,68.88 54.03,74.62 17.24,2.87 36.78,0.64 51.73,-5.74 16.09,-7.02 18.39,-12.43 28.74,-19.13 1.15,2.23 4.6,15.3 4.6,18.81l29.89 0 0 -151.78c0,-8.29 -2.3,-17.54 -4.6,-23.6 -16.09,-33.48 -65.52,-46.56 -100.01,-40.81 -11.5,2.23 -35.64,6.7 -45.98,12.12z"/>
   <path class="fil0" d="M1758.61 538.49l182.78 0 0 -30.29c0,-2.23 -1.15,-2.87 -3.45,-2.87l-139.09 0 0 -262.76 -40.24 0 0 295.92z"/>
   <path class="fil0" d="M2448.33 382.88c0,14.99 0,24.55 9.2,37.63 6.9,9.25 18.39,17.54 29.89,19.77 10.34,1.59 51.73,12.44 57.48,16.58 19.54,13.71 18.39,48.15 -17.24,54.53 -37.93,6.7 -73.57,-6.06 -80.47,-6.06 0,33.16 -3.45,28.06 11.5,32.84 4.6,1.59 9.2,3.19 13.8,4.15 25.29,5.1 40.23,5.1 65.52,-0.32 19.54,-4.46 35.63,-13.39 45.98,-30.61 21.84,-34.76 4.6,-80.04 -32.19,-90.24l-20.69 -4.46c-27.59,-7.97 -47.13,-6.7 -47.13,-34.76 0,-27.43 34.48,-27.74 56.33,-27.74 10.35,0 40.23,8.29 43.68,8.61l0 -29.33c-2.3,-0.64 -13.8,-5.42 -24.14,-7.97 -27.59,-6.38 -65.52,-5.74 -88.51,11.48 -11.5,8.61 -22.99,26.46 -22.99,45.92z"/>
   <path class="fil0" d="M1381.56 327.72l-40.23 0 0 31.25 39.08 0 0 134.89c0,16.26 9.2,29.02 20.69,38.9 20.69,18.81 81.62,14.67 81.62,5.74l0 -26.46 -41.39 0c-10.34,0 -22.99,-10.2 -22.99,-22l0 -131.06 58.63 0c2.3,0 3.45,-0.64 3.45,-2.87l0 -28.38 -62.07 0 0 -57.4 -36.79 0 0 57.4z"/>
   <path class="fil1" d="M1057.39 811.77l20.69 0c2.3,-4.46 3.45,-12.12 4.6,-17.54 2.3,-6.38 4.6,-11.8 5.75,-18.49l16.09 -55.17c3.45,-10.52 14.94,-48.79 14.94,-56.76l2.3 0c0,6.38 33.34,115.12 37.94,129.15 1.15,4.78 4.6,14.35 4.6,18.81l22.99 0c0,-4.78 14.94,-58.67 16.09,-66.01 2.3,-7.65 4.6,-14.35 6.9,-22.32 3.45,-15.3 8.05,-30.29 11.5,-44.64l9.2 -33.16c1.15,-2.87 2.3,-7.97 2.3,-11.48l-22.99 0c0,2.87 -1.15,6.38 -1.15,8.61 -10.35,37.63 -20.69,80.67 -29.89,118.94 -2.3,4.78 -3.45,14.67 -3.45,19.45 -1.15,0 -1.15,-0.64 -1.15,-0.64 0,0 0,-0.64 0,-0.64 0,-0.32 0,-0.63 0,-0.63 -2.3,-7.02 -4.6,-23.28 -9.2,-35.4 -1.15,-6.38 -3.45,-11.8 -4.6,-18.5l-25.29 -81.63c-1.15,-3.51 -2.3,-6.06 -3.45,-9.57l-22.99 0 -32.19 108.42c-1.15,6.38 -3.45,11.48 -4.6,18.18l-3.45 16.58c0,0.32 0,0.64 0,0.96l0 1.27c0,0.32 0,0.64 -1.15,0.64 -1.15,-5.74 -2.3,-13.07 -3.45,-18.17 -4.6,-26.15 -19.54,-83.55 -27.59,-109.06l-3.45 -18.81 -22.99 0 5.75 22c5.75,22 10.35,44.33 17.24,66.33 2.3,7.65 3.45,14.35 5.75,22 2.3,7.97 3.45,14.67 5.75,22.64l9.2 33.16c1.15,3.19 2.3,8.29 3.45,11.48z"/>
   <path class="fil1" d="M1464.33 811.77l19.54 0 0 -143.18c0,-5.74 -1.15,-7.02 -1.15,-12.44 2.3,2.55 2.3,5.1 4.6,9.25 18.39,45.6 35.63,96.94 54.03,142.22 2.3,5.42 0,4.15 17.24,4.15 2.3,0 3.45,-3.19 4.6,-8.29l57.48 -146.37c0,10.2 -1.15,17.22 -1.15,27.74l0 126.91 20.69 0 0 -177.61 -31.04 0 -49.43 125.96c-1.15,4.15 -5.74,15.63 -5.74,19.13l-2.3 0c0,-3.51 -31.04,-81.63 -34.49,-91.52 -1.15,-2.55 -2.3,-6.06 -3.45,-8.93l-16.09 -41.45c-1.15,-1.91 -1.15,-3.19 -3.44,-3.19l-29.89 0 0 177.61z"/>
   <path class="fil1" d="M73.39 664.77c19.54,0 40.24,-3.51 63.22,-3.83 5.75,-0.32 14.94,-1.91 20.69,-1.91l-5.75 -83.22c-1.15,-5.42 -2.3,-14.35 -2.3,-20.09l-2.3 -41.77c-1.15,-3.51 -1.15,-5.74 -1.15,-10.52 0,-5.42 -1.15,-6.38 -1.15,-10.52l-56.33 3.51c-8.05,0 -4.6,1.28 -6.9,23.92l-3.45 57.4c-1.15,9.89 0,20.09 -1.15,29.33l-3.45 57.72z"/>
   <path class="fil1" d="M621.72 631.29l34.49 50.7c4.6,-1.28 14.94,-6.7 19.54,-8.93l132.2 -64.73c-1.15,-3.83 -9.2,-13.71 -11.5,-17.54 -1.15,-1.59 -1.15,-2.23 -2.3,-3.83l-33.34 -48.47c-4.6,1.28 -13.8,8.29 -17.24,11.16 -19.54,14.35 -49.43,32.53 -68.97,46.56l-52.88 35.08z"/>
   <path class="fil1" d="M126.27 119.49c0,5.42 18.39,73.98 20.69,81.95 3.45,-0.32 5.75,-1.59 9.2,-2.23 4.6,-1.28 6.9,-1.59 10.35,-2.55 3.45,-0.96 6.9,-1.91 10.35,-2.55 3.45,-0.96 6.89,-2.23 10.34,-2.87 26.44,-6.38 54.03,-14.35 80.47,-21.05l41.38 -10.84 -16.09 -58.99 -62.07 7.02c-3.45,0.64 -8.05,0.96 -10.35,1.28l-72.42 8.29c-3.45,0.64 -6.9,0.32 -10.35,0.96 -3.45,0.32 -8.05,1.28 -11.5,1.59z"/>
   <path class="fil1" d="M353.88 75.17c3.45,1.91 5.75,2.55 9.2,4.46l140.24 67.6 27.59 -55.49c-5.75,-3.19 -12.65,-7.65 -17.24,-11.48l-87.36 -57.4c-5.75,-3.83 -31.04,-22 -35.64,-22.96l-36.78 75.26z"/>
   <path class="fil0" d="M452.74 555.71l11.5 51.66c2.3,8.93 -2.3,7.65 21.84,5.74l73.57 -7.02c4.6,-0.64 11.5,-0.64 14.94,-1.28l58.63 -5.1c0,-4.15 -1.15,-6.06 -1.15,-10.2l-17.24 -71.75 -60.93 13.71c-16.09,4.15 -96.56,21.69 -101.16,24.24z"/>
   <path class="fil0" d="M323.99 236.83l114.95 48.15c6.9,2.87 12.65,5.1 19.54,7.97l19.54 7.97 22.99 -55.48c-2.3,-2.87 -5.74,-3.83 -9.19,-5.74l-97.71 -58.99c-6.9,-3.51 -12.65,-6.7 -18.39,-10.52 -3.45,-1.91 -5.74,-3.19 -9.19,-5.42 -3.45,-1.91 -6.9,-4.46 -10.35,-5.42l-32.19 77.49z"/>
   <path class="fil1" d="M710.23 454.63l43.68 13.07c5.75,1.59 10.35,2.87 14.94,4.15l9.2 -19.45c2.3,-6.7 4.6,-12.76 8.05,-19.45l50.58 -115.75 -20.69 -5.42c-8.04,-1.91 -12.64,-3.83 -20.69,-5.74 -6.9,-1.91 -35.64,-10.84 -40.24,-10.84 0,5.74 -3.45,13.39 -5.75,19.45 -6.89,27.74 -19.54,70.47 -27.59,99.81l-11.5 40.18z"/>
   <path class="fil1" d="M595.28 111.83c1.15,4.78 25.29,58.35 28.74,65.69l37.94 86.1c4.6,-0.32 11.5,-4.15 14.94,-5.74 3.45,-1.91 41.38,-18.5 41.38,-20.09l-47.13 -160.39c-3.45,1.59 -5.75,2.55 -9.2,4.15l-66.67 30.29z"/>
   <path class="fil0" d="M151.56 405.84l39.08 34.44c2.3,1.59 2.3,1.91 3.45,3.51 4.6,3.83 17.24,15.63 20.69,16.58 4.6,-6.06 9.2,-9.89 13.8,-15.63 1.15,-1.59 1.15,-1.91 2.3,-3.83l11.5 -12.12c9.19,-12.44 36.78,-41.13 47.13,-53.89 2.3,-3.19 4.6,-5.1 6.9,-8.29l26.44 -31.25c-2.3,-1.91 -2.3,-3.19 -4.6,-5.1 -2.3,-1.91 -4.6,-2.87 -5.75,-4.78 -2.3,-2.23 -3.45,-2.55 -5.74,-4.78 -4.6,-3.83 -26.44,-23.6 -29.89,-24.56 -3.45,1.91 -4.6,4.46 -8.05,6.7 -2.3,1.91 -4.6,4.15 -8.05,6.38 -2.3,2.23 -4.6,4.15 -6.9,6.7l-79.31 68.56c-4.6,4.46 -20.69,17.86 -22.99,21.36z"/>
   <path class="fil1" d="M-0.18 382.88l33.34 24.55c4.6,3.19 31.04,22.96 35.63,24.24l59.78 -83.87c5.75,-7.33 34.49,-46.87 35.64,-51.66l-42.54 -29.97c-2.3,-1.59 -3.44,-3.19 -5.74,-4.46l-60.93 63.46c-2.3,1.91 -2.3,2.55 -4.6,4.15l-13.8 14.98c-6.9,8.29 -14.94,14.35 -21.84,22.96 -4.6,5.42 -11.5,10.52 -14.94,15.63z"/>
   <path class="fil1" d="M436.64 772.55c4.6,0.32 9.2,1.91 13.8,2.87l136.8 33.16c3.45,0.96 11.5,3.51 12.65,2.23l8.05 -77.49c1.15,-7.65 0,-5.1 -9.2,-6.38l-31.04 -3.19c-17.24,-0.64 -120.7,-13.07 -123,-12.11 -3.45,1.28 -2.3,9.56 -3.45,14.03l-2.3 31.25c-1.15,5.74 -2.3,9.57 -2.3,15.63z"/>
   <path class="fil0" d="M255.02 522.55c1.15,5.42 64.37,147.64 66.67,154.65 3.45,-0.32 32.19,-18.18 35.64,-20.41l26.44 -15.62c2.3,-1.59 5.75,-4.46 9.2,-5.1 0,-4.46 -6.9,-14.67 -10.35,-18.81l-64.37 -107.46c-3.45,-6.06 -6.9,-11.48 -10.34,-17.86l-32.19 19.13c-4.6,2.87 -16.09,10.2 -20.69,11.48z"/>
   <path class="fil0" d="M557.35 437.41c11.49,0 42.53,4.78 60.93,4.78 3.44,-13.39 5.74,-26.79 9.19,-40.81 3.45,-13.71 5.75,-26.47 9.2,-40.18l6.9 -30.29c1.15,-3.83 1.15,-6.7 2.3,-10.2l9.2 -41.77c-6.9,-1.59 -78.17,-6.7 -83.92,-6.7l-11.5 144.13c-1.15,6.38 -2.3,14.99 -2.3,21.05z"/>
   <path class="fil1" d="M211.33 701.12l86.22 117.67c3.45,5.42 9.2,14.99 13.79,15.94 0,-3.83 3.45,-5.42 5.75,-7.97l41.39 -45.28c3.45,-2.87 5.75,-4.78 8.05,-7.97l-86.22 -88.33c-2.3,-4.15 -25.29,-26.79 -28.74,-29.02 -3.45,5.1 -5.75,6.7 -9.19,11.16l-31.04 33.8z"/>
   <path class="fil1" d="M2902.39 854.82c-18.39,0 -43.68,1.59 -43.68,-22.96 0,-14.03 11.5,-22.96 25.29,-22.96 14.94,0 47.13,-2.55 55.18,6.06 10.35,11.48 2.3,39.86 -36.78,39.86zm-32.19 -133.93c0,-22 11.49,-29.33 31.04,-29.33 33.33,0 31.04,39.54 19.54,50.38 -9.2,9.25 -33.34,9.25 -43.69,-0.64 -4.6,-4.78 -6.89,-13.07 -6.89,-20.41zm-21.84 0c0,14.99 10.35,34.12 21.84,37.31 -1.15,7.65 -13.8,5.1 -13.8,26.78 0,3.51 2.3,7.33 3.45,9.57 3.45,3.83 4.6,4.15 6.9,6.7 -16.09,1.28 -33.34,19.45 -26.44,43.05 6.9,26.47 39.08,26.79 62.07,26.79 68.97,0 74.72,-59.95 42.53,-76.21 -25.29,-12.76 -68.97,6.7 -68.97,-17.54 0,-4.78 3.45,-8.61 6.9,-11.16 5.75,-4.46 5.75,-2.23 14.94,-2.23 40.23,0 58.63,-28.7 48.28,-58.67 -1.15,-5.1 -3.45,-6.7 -4.6,-10.84l24.14 -2.87c0,-14.67 1.15,-13.71 -6.9,-13.71l-40.23 0c-5.75,-0.64 -11.5,-2.55 -18.39,-2.55 -20.69,0 -39.08,7.65 -47.13,25.19 -2.3,4.78 -4.6,14.35 -4.6,20.41z"/>
   <path class="fil1" d="M3058.73 811.77l98.86 0 0 -19.13 -74.72 0c-2.3,0 -3.45,-0.64 -3.45,-2.87l0 -59.31c0,-1.91 1.15,-2.87 3.45,-2.87l70.12 0 0 -18.81 -73.57 0 0 -55.48 78.17 0 0 -19.13 -98.86 0 0 177.61z"/>
   <path class="fil1" d="M2344.87 693.47c25.29,0 33.33,16.26 33.33,37.94l-67.82 0c0,-19.45 12.65,-37.94 34.49,-37.94zm5.75 121.17c24.14,0 29.89,-5.1 44.83,-8.61l0 -19.13c-3.45,0.32 -55.18,22.64 -75.87,-4.78 -5.75,-7.97 -10.35,-19.45 -10.35,-33.48l91.96 0c0,-28.06 -2.3,-54.53 -31.04,-67.92 -29.89,-14.67 -67.82,-0.32 -79.32,36.99 -4.6,18.5 -4.6,38.91 1.15,57.08 2.3,7.33 6.9,15.62 11.5,21.04 2.3,2.23 6.89,5.74 9.19,7.33 5.75,4.15 9.2,5.74 16.09,7.97l21.84 3.51z"/>
   <path class="fil1" d="M1307.99 693.47c35.63,0 31.04,33.16 33.33,37.94l-68.97 0c0,-13.71 9.2,-29.02 19.54,-34.76 4.6,-1.91 10.35,-3.19 16.09,-3.19zm-57.48 43.69c0,20.41 -1.15,33.17 10.35,51.02 2.3,3.51 6.9,9.25 10.35,11.8 13.8,10.84 31.04,16.58 50.58,14.03 8.05,-0.96 11.5,-0.96 19.54,-2.55 4.6,-1.28 12.65,-5.1 16.09,-5.42l0 -19.13c-16.09,3.83 -14.94,8.61 -45.98,8.61 -27.59,0 -37.93,-22 -40.23,-46.87l91.96 0c0,-14.67 1.15,-24.24 -3.45,-37.94 -4.6,-14.35 -13.8,-23.92 -27.59,-30.3 -16.09,-8.61 -41.38,-6.06 -57.48,5.74 -12.65,10.2 -24.14,30.93 -24.14,51.02z"/>
   <path class="fil1" d="M2004.61 693.47c22.99,0 32.19,15.31 32.19,37.94l-67.82 0c0,-14.03 9.2,-29.33 19.54,-34.76 4.6,-1.91 9.19,-3.19 16.09,-3.19zm-58.63 52.3c0,8.61 2.3,21.37 4.6,28.06 13.8,41.45 57.48,47.19 93.11,35.39 3.45,-0.96 6.9,-2.87 10.35,-3.19l0 -19.13c-3.45,0.32 -5.75,1.91 -9.2,3.19 -35.64,11.8 -77.02,7.65 -77.02,-41.45l91.96 0c0,-23.6 0,-42.09 -17.24,-58.67 -22.99,-23.6 -75.87,-22.32 -91.96,27.74 -2.3,6.38 -4.6,20.09 -4.6,28.06z"/>
   <path class="fil0" d="M1267.76 538.49l35.64 0 0 -11.16c0,-66.96 -1.15,-131.06 -1.15,-197.7l-34.49 0 0 208.86z"/>
   <path class="fil1" d="M1824.13 624.59l0 187.18 19.54 0 0 -47.83c0,-3.19 13.8,-13.07 14.94,-14.35l22.99 30.61c3.45,3.51 22.99,28.06 22.99,31.57l25.29 0c0,-3.83 0,-2.23 -2.3,-5.1l-39.09 -52.3c-5.75,-6.38 -10.35,-12.44 -14.94,-19.13l12.65 -14.35c4.6,-4.78 10.35,-9.24 13.8,-14.03 4.6,-5.42 24.14,-24.56 26.44,-28.7 -31.04,0 -21.84,-2.87 -39.09,15.94l-27.59 28.7c-2.3,3.19 -4.6,6.7 -8.05,9.89 -2.3,2.23 -2.3,2.23 -4.6,5.1 -1.15,2.55 -2.3,3.51 -4.6,5.1 2.3,-10.2 1.15,-100.13 1.15,-118.3 0,-4.46 -5.75,-2.87 -17.24,-2.87 -2.3,0 -2.3,0.64 -2.3,2.87z"/>
   <path class="fil1" d="M1726.42 796.46c-20.69,0 -28.74,-4.15 -28.74,-24.87 0,-25.83 44.83,-24.87 64.37,-24.87 0,15.63 1.15,27.74 -10.35,39.54 -5.75,6.06 -16.09,10.2 -25.29,10.2zm-36.79 -108.74c2.3,2.87 5.75,11.48 5.75,15.31 6.9,-0.32 20.69,-9.57 39.09,-9.57 22.99,0 28.74,12.12 28.74,35.07 0,5.1 -16.09,2.55 -28.74,3.83 -11.5,1.28 -17.24,1.59 -27.59,4.46 -14.94,4.15 -31.04,16.58 -31.04,32.85 0,12.43 0,26.15 11.49,34.44 9.2,7.33 11.5,7.65 26.44,9.89 16.09,2.55 29.89,-3.51 41.38,-12.12 3.45,-3.51 3.45,-6.38 8.05,-9.25 0,4.15 2.3,19.13 5.75,19.13l13.8 0 0 -94.71c0,-15.94 -5.75,-29.02 -18.39,-35.39 -22.99,-11.8 -55.18,-3.83 -74.72,6.06z"/>
   <path class="fil1" d="M3233.46 796.46c-13.8,0 -27.59,-2.55 -27.59,-21.04 0,-29.98 36.79,-28.7 64.37,-28.7 0,12.12 1.15,20.09 -3.45,29.98 -5.75,12.11 -17.24,19.77 -33.33,19.77zm-34.49 -109.69c0,3.51 4.6,13.07 5.75,16.26 4.6,-0.64 66.67,-30.93 66.67,18.81l0 9.57c-27.59,0 -87.37,-0.32 -87.37,40.18 0,26.78 10.35,38.58 36.79,42.41 16.09,2.23 29.89,-2.55 41.38,-11.8 2.3,-1.28 3.45,-2.87 4.6,-4.46 2.3,-2.23 2.3,-3.51 4.6,-5.1l4.6 19.13 14.94 0 0 -97.26c0,-22.96 -13.8,-33.8 -33.34,-37.63 -28.74,-5.74 -50.58,7.97 -58.63,9.89z"/>
   <path class="fil1" d="M3446.12 853.86c-6.9,0 -9.2,-0.96 -14.94,-0.96 0,19.13 -4.6,18.18 21.84,18.18 11.5,0 19.54,-5.1 26.44,-10.52 5.75,-4.78 11.5,-15.63 14.94,-22.32 5.74,-12.12 32.19,-86.1 40.23,-106.51l14.94 -39.54c2.3,-4.78 3.45,-9.25 4.6,-14.03l-21.84 0c-2.3,5.74 -37.93,106.19 -39.08,111.61 -2.3,-1.91 -8.05,-24.23 -10.35,-28.06 -3.45,-9.89 -5.75,-18.18 -10.35,-27.74l-20.69 -55.8 -22.99 0 19.54 47.19c5.75,16.58 12.65,31.57 18.39,47.83l14.94 35.39c2.3,5.74 0,6.7 -2.3,11.8 -6.9,16.26 -11.5,33.48 -33.34,33.48z"/>
   <path class="fil1" d="M2723.07 695.38c-2.3,-6.7 0,-17.22 -5.75,-17.22 -10.35,0 -14.94,-1.59 -14.94,2.87l0 127.87c0,4.78 8.05,2.87 20.69,2.87l0 -68.88c0,-29.97 10.35,-49.43 40.23,-49.43 24.14,0 31.04,14.35 31.04,36.03l0 82.27c12.65,0 20.69,1.91 20.69,-2.87l0 -76.53c0,-18.49 -1.15,-31.25 -10.34,-42.41 -11.5,-16.26 -49.43,-21.37 -73.57,-2.87 -3.45,2.87 -4.6,6.06 -8.05,8.29z"/>
   <path class="fil1" d="M2137.95 648.51c0,2.55 0,2.55 1.15,4.78l55.18 0 0 158.48c13.8,0 21.84,1.91 21.84,-2.87l0 -155.61 55.18 0c2.3,-7.02 1.15,-10.52 1.15,-19.13l-134.5 0 0 14.35z"/>
   <path class="fil1" d="M2425.34 710.69c0,21.36 14.94,29.33 32.19,36.35 11.5,5.1 42.53,13.71 42.53,27.43l0 5.74c0,14.99 -22.99,16.26 -35.63,16.26 -18.39,0 -32.19,-9.25 -39.08,-9.57 0,18.5 -4.6,22 25.29,26.47 18.39,2.55 44.83,0.96 58.63,-10.84 13.8,-13.07 14.94,-36.99 2.3,-50.38 -4.6,-5.1 -14.94,-10.52 -22.99,-13.39 -16.09,-6.7 -42.54,-12.12 -42.54,-29.97 0,-12.44 17.24,-15.31 28.74,-15.31 11.5,0 28.74,4.78 35.63,8.61 2.3,-4.46 6.9,-14.03 6.9,-18.18 -3.45,-0.96 -5.75,-1.91 -9.2,-3.19 -29.89,-10.52 -82.76,-7.02 -82.76,29.98z"/>
   <path class="fil1" d="M3323.12 709.73c0,22.64 14.94,30.29 33.34,37.63 19.54,7.97 41.38,12.76 41.38,30.93 0,22.96 -39.08,19.45 -56.33,14.67 -8.05,-2.23 -13.8,-6.06 -18.39,-6.06l0 16.26c0,8.61 50.58,18.81 78.17,3.19 20.69,-11.8 22.99,-43.05 4.6,-57.08 -3.45,-2.23 -6.9,-4.46 -10.35,-6.38 -20.69,-10.84 -51.73,-14.67 -51.73,-33.16 0,-24.56 48.28,-16.26 64.37,-7.65 1.15,-5.74 6.9,-11.8 6.9,-18.18 -12.65,-3.19 -22.99,-8.61 -42.54,-8.61 -5.74,0 -12.64,0.96 -18.39,2.23 -14.94,2.87 -31.04,14.03 -31.04,32.21z"/>
   <path class="fil1" d="M2535.69 685.81l0 8.61 18.39 0 0 76.21c0,18.17 4.59,31.25 16.09,38.26 4.6,3.19 13.8,5.1 20.69,5.74 6.9,0.64 18.39,-2.55 24.14,-3.83l0 -16.26c-13.8,0 -40.24,13.71 -40.24,-29.65l0 -67.6c0,-2.23 0,-2.87 2.3,-2.87l36.79 0 0 -16.26 -36.79 0c-2.3,0 -2.3,-0.64 -2.3,-2.87l0 -27.74 -12.65 0 -6.89 25.19c-3.45,7.97 -19.54,7.33 -19.54,13.07z"/>
   <polygon class="fil1" points="2640.3,811.77 2660.99,811.77 2660.99,678.16 2640.3,678.16 "/>
   <path class="fil0" d="M2635.7 328.67c0,-33.48 39.09,-44.33 57.48,-24.87 17.24,18.81 11.5,58.99 -26.44,58.99 -17.24,0 -31.04,-16.26 -31.04,-34.12zm-11.5 -4.78l0 11.48c0,8.93 9.2,22.64 13.8,26.46 4.6,3.19 8.05,5.74 12.65,7.97 31.04,12.44 64.37,-7.97 64.37,-41.13 0,-36.99 -44.83,-59.31 -77.02,-32.21 -5.75,4.78 -13.8,16.9 -13.8,27.43z"/>
   <polygon class="fil0" points="1267.76,278.93 1304.54,278.93 1304.54,239.7 1267.76,239.7 "/>
   <path class="fil0" d="M2666.74 326.76c-4.6,0 -4.6,0 -4.6,-9.57 0,-5.74 11.5,-2.23 13.8,-0.96 1.15,2.87 3.45,10.52 -9.2,10.52zm-14.94 -19.13l0 44.64 10.35 0 0 -17.85c12.65,0 11.5,0.64 14.94,10.52 2.3,9.89 2.3,7.33 13.79,7.33l-3.45 -12.43c-1.15,-4.78 -2.3,-8.29 -6.89,-9.25 2.3,-2.55 9.19,-4.46 9.19,-11.48 0,-2.55 -3.45,-7.97 -4.6,-9.25 -5.74,-5.1 -29.89,-3.83 -33.33,-2.23z"/>
   <path class="fil1" d="M2638 642.77c0,17.85 21.84,16.58 24.14,4.78 3.45,-12.44 -4.6,-22.32 -16.09,-17.86 -5.75,2.23 -8.05,6.06 -8.05,13.07z"/>
  </g>
 </g>
</svg>
